<mxfile host="app.diagrams.net" agent="Mozilla/5.0 (Windows NT 10.0; Win64; x64) AppleWebKit/537.36 (KHTML, like Gecko) Chrome/127.0.0.0 Safari/537.36" version="24.7.7" pages="2">
  <diagram id="BaNE8Jn_i_1GEyPRa6I8" name="DIAGRAMA DE ACTVIDADES">
    <mxGraphModel dx="1290" dy="522" grid="1" gridSize="10" guides="1" tooltips="1" connect="1" arrows="1" fold="1" page="1" pageScale="1" pageWidth="827" pageHeight="1169" math="0" shadow="0">
      <root>
        <mxCell id="0" />
        <mxCell id="1" parent="0" />
        <mxCell id="q4lmn5uCkXe9AXJb_KAT-1" value="Administrador" style="swimlane;horizontal=0;whiteSpace=wrap;html=1;" vertex="1" parent="1">
          <mxGeometry x="10" y="260" width="1350" height="370" as="geometry" />
        </mxCell>
        <mxCell id="q4lmn5uCkXe9AXJb_KAT-2" style="edgeStyle=orthogonalEdgeStyle;rounded=0;orthogonalLoop=1;jettySize=auto;html=1;" edge="1" parent="q4lmn5uCkXe9AXJb_KAT-1" source="q4lmn5uCkXe9AXJb_KAT-3" target="q4lmn5uCkXe9AXJb_KAT-5">
          <mxGeometry relative="1" as="geometry" />
        </mxCell>
        <mxCell id="q4lmn5uCkXe9AXJb_KAT-3" value="" style="ellipse;whiteSpace=wrap;html=1;aspect=fixed;" vertex="1" parent="q4lmn5uCkXe9AXJb_KAT-1">
          <mxGeometry x="60" y="30" width="80" height="80" as="geometry" />
        </mxCell>
        <mxCell id="q4lmn5uCkXe9AXJb_KAT-4" value="" style="edgeStyle=orthogonalEdgeStyle;rounded=0;orthogonalLoop=1;jettySize=auto;html=1;" edge="1" parent="q4lmn5uCkXe9AXJb_KAT-1" source="q4lmn5uCkXe9AXJb_KAT-5" target="q4lmn5uCkXe9AXJb_KAT-7">
          <mxGeometry relative="1" as="geometry" />
        </mxCell>
        <mxCell id="q4lmn5uCkXe9AXJb_KAT-5" value="Iniciar sesión" style="rounded=1;whiteSpace=wrap;html=1;" vertex="1" parent="q4lmn5uCkXe9AXJb_KAT-1">
          <mxGeometry x="191" y="40" width="120" height="60" as="geometry" />
        </mxCell>
        <mxCell id="q4lmn5uCkXe9AXJb_KAT-6" value="" style="edgeStyle=orthogonalEdgeStyle;rounded=0;orthogonalLoop=1;jettySize=auto;html=1;" edge="1" parent="q4lmn5uCkXe9AXJb_KAT-1" source="q4lmn5uCkXe9AXJb_KAT-7" target="q4lmn5uCkXe9AXJb_KAT-9">
          <mxGeometry relative="1" as="geometry" />
        </mxCell>
        <mxCell id="q4lmn5uCkXe9AXJb_KAT-7" value="Accede a visualizar fechas límite" style="rounded=1;whiteSpace=wrap;html=1;" vertex="1" parent="q4lmn5uCkXe9AXJb_KAT-1">
          <mxGeometry x="390" y="40" width="120" height="60" as="geometry" />
        </mxCell>
        <mxCell id="q4lmn5uCkXe9AXJb_KAT-8" value="" style="edgeStyle=orthogonalEdgeStyle;rounded=0;orthogonalLoop=1;jettySize=auto;html=1;" edge="1" parent="q4lmn5uCkXe9AXJb_KAT-1" source="q4lmn5uCkXe9AXJb_KAT-9" target="q4lmn5uCkXe9AXJb_KAT-11">
          <mxGeometry relative="1" as="geometry" />
        </mxCell>
        <mxCell id="q4lmn5uCkXe9AXJb_KAT-9" value="&lt;span style=&quot;font-size:11.0pt;line-height:107%;&lt;br/&gt;font-family:&amp;quot;Calibri&amp;quot;,sans-serif;mso-ascii-theme-font:minor-latin;mso-fareast-font-family:&lt;br/&gt;Calibri;mso-fareast-theme-font:minor-latin;mso-hansi-theme-font:minor-latin;&lt;br/&gt;mso-bidi-font-family:Arial;mso-bidi-theme-font:minor-bidi;mso-ansi-language:&lt;br/&gt;ES-GT;mso-fareast-language:EN-US;mso-bidi-language:AR-SA&quot;&gt;Visualizar un resumen&lt;br/&gt;de todas las fechas límite del proyecto&lt;/span&gt;" style="rounded=1;whiteSpace=wrap;html=1;" vertex="1" parent="q4lmn5uCkXe9AXJb_KAT-1">
          <mxGeometry x="560" y="25" width="160" height="90" as="geometry" />
        </mxCell>
        <mxCell id="q4lmn5uCkXe9AXJb_KAT-10" style="edgeStyle=orthogonalEdgeStyle;rounded=0;orthogonalLoop=1;jettySize=auto;html=1;entryX=0.5;entryY=0;entryDx=0;entryDy=0;" edge="1" parent="q4lmn5uCkXe9AXJb_KAT-1" source="q4lmn5uCkXe9AXJb_KAT-11" target="q4lmn5uCkXe9AXJb_KAT-14">
          <mxGeometry relative="1" as="geometry" />
        </mxCell>
        <mxCell id="q4lmn5uCkXe9AXJb_KAT-11" value="Edita o actualiza fecha" style="rounded=1;whiteSpace=wrap;html=1;" vertex="1" parent="q4lmn5uCkXe9AXJb_KAT-1">
          <mxGeometry x="780" y="40" width="120" height="60" as="geometry" />
        </mxCell>
        <mxCell id="q4lmn5uCkXe9AXJb_KAT-12" style="edgeStyle=orthogonalEdgeStyle;rounded=0;orthogonalLoop=1;jettySize=auto;html=1;entryX=0.5;entryY=1;entryDx=0;entryDy=0;" edge="1" parent="q4lmn5uCkXe9AXJb_KAT-1" source="q4lmn5uCkXe9AXJb_KAT-14" target="q4lmn5uCkXe9AXJb_KAT-9">
          <mxGeometry relative="1" as="geometry">
            <Array as="points">
              <mxPoint x="920" y="300" />
              <mxPoint x="620" y="300" />
            </Array>
          </mxGeometry>
        </mxCell>
        <mxCell id="q4lmn5uCkXe9AXJb_KAT-13" value="NO" style="edgeLabel;html=1;align=center;verticalAlign=middle;resizable=0;points=[];" vertex="1" connectable="0" parent="q4lmn5uCkXe9AXJb_KAT-12">
          <mxGeometry x="-0.4637" relative="1" as="geometry">
            <mxPoint x="-1" as="offset" />
          </mxGeometry>
        </mxCell>
        <mxCell id="q4lmn5uCkXe9AXJb_KAT-14" value="Confirma fecha" style="rhombus;whiteSpace=wrap;html=1;" vertex="1" parent="q4lmn5uCkXe9AXJb_KAT-1">
          <mxGeometry x="880" y="180" width="80" height="80" as="geometry" />
        </mxCell>
        <mxCell id="q4lmn5uCkXe9AXJb_KAT-15" value="SSAP" style="swimlane;horizontal=0;whiteSpace=wrap;html=1;" vertex="1" parent="1">
          <mxGeometry x="10" y="630" width="1350" height="370" as="geometry" />
        </mxCell>
        <mxCell id="q4lmn5uCkXe9AXJb_KAT-16" style="edgeStyle=orthogonalEdgeStyle;rounded=0;orthogonalLoop=1;jettySize=auto;html=1;" edge="1" parent="q4lmn5uCkXe9AXJb_KAT-15" source="q4lmn5uCkXe9AXJb_KAT-17">
          <mxGeometry relative="1" as="geometry">
            <mxPoint x="1151.1428397042412" y="210" as="targetPoint" />
            <Array as="points">
              <mxPoint x="170" y="200" />
              <mxPoint x="1151" y="200" />
            </Array>
          </mxGeometry>
        </mxCell>
        <mxCell id="q4lmn5uCkXe9AXJb_KAT-17" value="Se notifica fecha limite" style="rounded=1;whiteSpace=wrap;html=1;" vertex="1" parent="q4lmn5uCkXe9AXJb_KAT-15">
          <mxGeometry x="110" y="60" width="120" height="60" as="geometry" />
        </mxCell>
        <mxCell id="q4lmn5uCkXe9AXJb_KAT-18" value="" style="ellipse;shape=doubleEllipse;whiteSpace=wrap;html=1;aspect=fixed;" vertex="1" parent="q4lmn5uCkXe9AXJb_KAT-15">
          <mxGeometry x="1230" y="150" width="80" height="80" as="geometry" />
        </mxCell>
        <mxCell id="q4lmn5uCkXe9AXJb_KAT-19" value="" style="endArrow=none;html=1;rounded=0;strokeWidth=9;" edge="1" parent="q4lmn5uCkXe9AXJb_KAT-15">
          <mxGeometry width="50" height="50" relative="1" as="geometry">
            <mxPoint x="1151" y="153" as="sourcePoint" />
            <mxPoint x="1151" y="262" as="targetPoint" />
          </mxGeometry>
        </mxCell>
        <mxCell id="q4lmn5uCkXe9AXJb_KAT-20" value="" style="endArrow=classic;html=1;rounded=0;entryX=0;entryY=0.5;entryDx=0;entryDy=0;" edge="1" parent="q4lmn5uCkXe9AXJb_KAT-15" target="q4lmn5uCkXe9AXJb_KAT-18">
          <mxGeometry width="50" height="50" relative="1" as="geometry">
            <mxPoint x="1151" y="190" as="sourcePoint" />
            <mxPoint x="1007" y="177" as="targetPoint" />
          </mxGeometry>
        </mxCell>
        <mxCell id="q4lmn5uCkXe9AXJb_KAT-21" style="edgeStyle=orthogonalEdgeStyle;rounded=0;orthogonalLoop=1;jettySize=auto;html=1;entryX=0.39;entryY=0.086;entryDx=0;entryDy=0;entryPerimeter=0;" edge="1" parent="1" source="q4lmn5uCkXe9AXJb_KAT-14" target="q4lmn5uCkXe9AXJb_KAT-17">
          <mxGeometry relative="1" as="geometry" />
        </mxCell>
        <mxCell id="q4lmn5uCkXe9AXJb_KAT-22" value="SI" style="edgeLabel;html=1;align=center;verticalAlign=middle;resizable=0;points=[];" vertex="1" connectable="0" parent="q4lmn5uCkXe9AXJb_KAT-21">
          <mxGeometry x="-0.7954" y="-1" relative="1" as="geometry">
            <mxPoint as="offset" />
          </mxGeometry>
        </mxCell>
      </root>
    </mxGraphModel>
  </diagram>
  <diagram id="IJelwg4MZVEzKc59vy6_" name="DIAGRAMA DE SECUENCIA">
    <mxGraphModel dx="3407" dy="1044" grid="1" gridSize="10" guides="1" tooltips="1" connect="1" arrows="1" fold="1" page="1" pageScale="1" pageWidth="827" pageHeight="1169" math="0" shadow="0">
      <root>
        <mxCell id="0" />
        <mxCell id="1" parent="0" />
        <mxCell id="YcHjUz3D_HMzgcxYsKfW-1" value="&lt;div style=&quot;text-align: left;&quot;&gt;&lt;span style=&quot;font-size: 12px; background-color: rgb(251, 251, 251);&quot;&gt;cambia las fechas&lt;/span&gt;&lt;/div&gt;" style="html=1;verticalAlign=bottom;endArrow=block;curved=0;rounded=0;" edge="1" parent="1">
          <mxGeometry relative="1" as="geometry">
            <mxPoint x="-396" y="384.65999999999997" as="sourcePoint" />
            <mxPoint x="-216" y="385" as="targetPoint" />
          </mxGeometry>
        </mxCell>
        <mxCell id="YcHjUz3D_HMzgcxYsKfW-2" value="" style="endArrow=none;dashed=1;html=1;dashPattern=1 3;strokeWidth=2;rounded=0;" edge="1" parent="1">
          <mxGeometry width="50" height="50" relative="1" as="geometry">
            <mxPoint x="-597" y="1080" as="sourcePoint" />
            <mxPoint x="-596" y="330" as="targetPoint" />
          </mxGeometry>
        </mxCell>
        <mxCell id="YcHjUz3D_HMzgcxYsKfW-3" value="VISUALIZACION DE FECHAS" style="rounded=0;whiteSpace=wrap;html=1;" vertex="1" parent="1">
          <mxGeometry x="-466" y="270" width="120" height="60" as="geometry" />
        </mxCell>
        <mxCell id="YcHjUz3D_HMzgcxYsKfW-4" value="" style="endArrow=none;dashed=1;html=1;dashPattern=1 3;strokeWidth=2;rounded=0;entryX=0.5;entryY=1;entryDx=0;entryDy=0;" edge="1" parent="1" source="YcHjUz3D_HMzgcxYsKfW-12" target="YcHjUz3D_HMzgcxYsKfW-3">
          <mxGeometry width="50" height="50" relative="1" as="geometry">
            <mxPoint x="-406" y="1100" as="sourcePoint" />
            <mxPoint x="-405" y="350" as="targetPoint" />
          </mxGeometry>
        </mxCell>
        <mxCell id="YcHjUz3D_HMzgcxYsKfW-5" value="GESTION DE FECHAS" style="rounded=0;whiteSpace=wrap;html=1;" vertex="1" parent="1">
          <mxGeometry x="-266" y="270" width="120" height="60" as="geometry" />
        </mxCell>
        <mxCell id="YcHjUz3D_HMzgcxYsKfW-6" value="" style="endArrow=none;dashed=1;html=1;dashPattern=1 3;strokeWidth=2;rounded=0;entryX=0.5;entryY=1;entryDx=0;entryDy=0;" edge="1" parent="1" source="YcHjUz3D_HMzgcxYsKfW-10" target="YcHjUz3D_HMzgcxYsKfW-5">
          <mxGeometry width="50" height="50" relative="1" as="geometry">
            <mxPoint x="-206.59000000000003" y="1110" as="sourcePoint" />
            <mxPoint x="-206.59000000000003" y="340" as="targetPoint" />
          </mxGeometry>
        </mxCell>
        <mxCell id="YcHjUz3D_HMzgcxYsKfW-7" value="Ingresa al modulo" style="text;html=1;align=center;verticalAlign=middle;whiteSpace=wrap;rounded=0;" vertex="1" parent="1">
          <mxGeometry x="-536" y="350" width="60" height="30" as="geometry" />
        </mxCell>
        <mxCell id="YcHjUz3D_HMzgcxYsKfW-8" value="" style="html=1;verticalAlign=bottom;endArrow=block;curved=0;rounded=0;" edge="1" parent="1" target="YcHjUz3D_HMzgcxYsKfW-12">
          <mxGeometry relative="1" as="geometry">
            <mxPoint x="-596" y="385" as="sourcePoint" />
            <mxPoint x="-406" y="385" as="targetPoint" />
          </mxGeometry>
        </mxCell>
        <mxCell id="YcHjUz3D_HMzgcxYsKfW-9" value="" style="endArrow=none;dashed=1;html=1;dashPattern=1 3;strokeWidth=2;rounded=0;entryX=0.5;entryY=1;entryDx=0;entryDy=0;" edge="1" parent="1" target="YcHjUz3D_HMzgcxYsKfW-10">
          <mxGeometry width="50" height="50" relative="1" as="geometry">
            <mxPoint x="-207" y="1095" as="sourcePoint" />
            <mxPoint x="-206" y="330" as="targetPoint" />
          </mxGeometry>
        </mxCell>
        <mxCell id="YcHjUz3D_HMzgcxYsKfW-10" value="" style="html=1;points=[[0,0,0,0,5],[0,1,0,0,-5],[1,0,0,0,5],[1,1,0,0,-5]];perimeter=orthogonalPerimeter;outlineConnect=0;targetShapes=umlLifeline;portConstraint=eastwest;newEdgeStyle={&quot;curved&quot;:0,&quot;rounded&quot;:0};" vertex="1" parent="1">
          <mxGeometry x="-211" y="350" width="10" height="135" as="geometry" />
        </mxCell>
        <mxCell id="YcHjUz3D_HMzgcxYsKfW-11" value="" style="endArrow=none;dashed=1;html=1;dashPattern=1 3;strokeWidth=2;rounded=0;entryX=0.5;entryY=1;entryDx=0;entryDy=0;" edge="1" parent="1" target="YcHjUz3D_HMzgcxYsKfW-12">
          <mxGeometry width="50" height="50" relative="1" as="geometry">
            <mxPoint x="-407" y="1097.0000915527344" as="sourcePoint" />
            <mxPoint x="-406" y="330" as="targetPoint" />
          </mxGeometry>
        </mxCell>
        <mxCell id="YcHjUz3D_HMzgcxYsKfW-12" value="" style="html=1;points=[[0,0,0,0,5],[0,1,0,0,-5],[1,0,0,0,5],[1,1,0,0,-5]];perimeter=orthogonalPerimeter;outlineConnect=0;targetShapes=umlLifeline;portConstraint=eastwest;newEdgeStyle={&quot;curved&quot;:0,&quot;rounded&quot;:0};" vertex="1" parent="1">
          <mxGeometry x="-411" y="353" width="10" height="80" as="geometry" />
        </mxCell>
        <mxCell id="YcHjUz3D_HMzgcxYsKfW-13" value="" style="endArrow=none;dashed=1;html=1;dashPattern=1 3;strokeWidth=2;rounded=0;" edge="1" parent="1">
          <mxGeometry width="50" height="50" relative="1" as="geometry">
            <mxPoint x="-751" y="1095.999984741211" as="sourcePoint" />
            <mxPoint x="-750.62" y="340" as="targetPoint" />
          </mxGeometry>
        </mxCell>
        <mxCell id="YcHjUz3D_HMzgcxYsKfW-14" value="" style="endArrow=none;dashed=1;html=1;dashPattern=1 3;strokeWidth=2;rounded=0;fontSize=12;startSize=8;endSize=8;curved=1;entryX=0;entryY=0.785;entryDx=0;entryDy=0;entryPerimeter=0;startArrow=classic;startFill=1;" edge="1" parent="1">
          <mxGeometry width="50" height="50" relative="1" as="geometry">
            <mxPoint x="-756" y="456" as="sourcePoint" />
            <mxPoint x="-211" y="456" as="targetPoint" />
          </mxGeometry>
        </mxCell>
        <mxCell id="YcHjUz3D_HMzgcxYsKfW-15" value="Recibe cambio de fecha" style="edgeLabel;html=1;align=center;verticalAlign=middle;resizable=0;points=[];fontSize=12;" vertex="1" connectable="0" parent="YcHjUz3D_HMzgcxYsKfW-14">
          <mxGeometry x="0.0512" y="4" relative="1" as="geometry">
            <mxPoint x="-1" as="offset" />
          </mxGeometry>
        </mxCell>
        <mxCell id="YcHjUz3D_HMzgcxYsKfW-16" value="PROYECT ADMIN" style="rounded=0;whiteSpace=wrap;html=1;" vertex="1" parent="1">
          <mxGeometry x="-651" y="270" width="120" height="60" as="geometry" />
        </mxCell>
        <mxCell id="YcHjUz3D_HMzgcxYsKfW-17" value="&lt;span style=&quot;text-wrap: nowrap;&quot;&gt;MIEBROS DEL EQUIPO&lt;/span&gt;" style="rounded=0;whiteSpace=wrap;html=1;" vertex="1" parent="1">
          <mxGeometry x="-827" y="270" width="137" height="60" as="geometry" />
        </mxCell>
      </root>
    </mxGraphModel>
  </diagram>
</mxfile>
